<svg id="mermaid-diagram-1780412974950" width="100%" xmlns="http://www.w3.org/2000/svg" style="max-width: 667.933349609375px;" viewBox="0 0 667.933349609375 873" role="graphics-document document" aria-roledescription="er"><style>#mermaid-diagram-1780412974950{font-family:"trebuchet ms",verdana,arial,sans-serif;font-size:16px;fill:#333;}#mermaid-diagram-1780412974950 .error-icon{fill:#552222;}#mermaid-diagram-1780412974950 .error-text{fill:#552222;stroke:#552222;}#mermaid-diagram-1780412974950 .edge-thickness-normal{stroke-width:2px;}#mermaid-diagram-1780412974950 .edge-thickness-thick{stroke-width:3.5px;}#mermaid-diagram-1780412974950 .edge-pattern-solid{stroke-dasharray:0;}#mermaid-diagram-1780412974950 .edge-pattern-dashed{stroke-dasharray:3;}#mermaid-diagram-1780412974950 .edge-pattern-dotted{stroke-dasharray:2;}#mermaid-diagram-1780412974950 .marker{fill:#333333;stroke:#333333;}#mermaid-diagram-1780412974950 .marker.cross{stroke:#333333;}#mermaid-diagram-1780412974950 svg{font-family:"trebuchet ms",verdana,arial,sans-serif;font-size:16px;}#mermaid-diagram-1780412974950 .entityBox{fill:#ECECFF;stroke:#9370DB;}#mermaid-diagram-1780412974950 .attributeBoxOdd{fill:#ffffff;stroke:#9370DB;}#mermaid-diagram-1780412974950 .attributeBoxEven{fill:#f2f2f2;stroke:#9370DB;}#mermaid-diagram-1780412974950 .relationshipLabelBox{fill:hsl(80, 100%, 96.2745098039%);opacity:0.7;background-color:hsl(80, 100%, 96.2745098039%);}#mermaid-diagram-1780412974950 .relationshipLabelBox rect{opacity:0.5;}#mermaid-diagram-1780412974950 .relationshipLine{stroke:#333333;}#mermaid-diagram-1780412974950 .entityTitleText{text-anchor:middle;font-size:18px;fill:#333;}#mermaid-diagram-1780412974950 #MD_PARENT_START{fill:#f5f5f5!important;stroke:#333333!important;stroke-width:1;}#mermaid-diagram-1780412974950 #MD_PARENT_END{fill:#f5f5f5!important;stroke:#333333!important;stroke-width:1;}#mermaid-diagram-1780412974950 :root{--mermaid-font-family:"trebuchet ms",verdana,arial,sans-serif;}</style><g></g><defs><marker id="MD_PARENT_START" refX="0" refY="7" markerWidth="190" markerHeight="240" orient="auto"><path d="M 18,7 L9,13 L1,7 L9,1 Z"></path></marker></defs><defs><marker id="MD_PARENT_END" refX="19" refY="7" markerWidth="20" markerHeight="28" orient="auto"><path d="M 18,7 L9,13 L1,7 L9,1 Z"></path></marker></defs><defs><marker id="ONLY_ONE_START" refX="0" refY="9" markerWidth="18" markerHeight="18" orient="auto"><path stroke="gray" fill="none" d="M9,0 L9,18 M15,0 L15,18"></path></marker></defs><defs><marker id="ONLY_ONE_END" refX="18" refY="9" markerWidth="18" markerHeight="18" orient="auto"><path stroke="gray" fill="none" d="M3,0 L3,18 M9,0 L9,18"></path></marker></defs><defs><marker id="ZERO_OR_ONE_START" refX="0" refY="9" markerWidth="30" markerHeight="18" orient="auto"><circle stroke="gray" fill="white" cx="21" cy="9" r="6"></circle><path stroke="gray" fill="none" d="M9,0 L9,18"></path></marker></defs><defs><marker id="ZERO_OR_ONE_END" refX="30" refY="9" markerWidth="30" markerHeight="18" orient="auto"><circle stroke="gray" fill="white" cx="9" cy="9" r="6"></circle><path stroke="gray" fill="none" d="M21,0 L21,18"></path></marker></defs><defs><marker id="ONE_OR_MORE_START" refX="18" refY="18" markerWidth="45" markerHeight="36" orient="auto"><path stroke="gray" fill="none" d="M0,18 Q 18,0 36,18 Q 18,36 0,18 M42,9 L42,27"></path></marker></defs><defs><marker id="ONE_OR_MORE_END" refX="27" refY="18" markerWidth="45" markerHeight="36" orient="auto"><path stroke="gray" fill="none" d="M3,9 L3,27 M9,18 Q27,0 45,18 Q27,36 9,18"></path></marker></defs><defs><marker id="ZERO_OR_MORE_START" refX="18" refY="18" markerWidth="57" markerHeight="36" orient="auto"><circle stroke="gray" fill="white" cx="48" cy="18" r="6"></circle><path stroke="gray" fill="none" d="M0,18 Q18,0 36,18 Q18,36 0,18"></path></marker></defs><defs><marker id="ZERO_OR_MORE_END" refX="39" refY="18" markerWidth="57" markerHeight="36" orient="auto"><circle stroke="gray" fill="white" cx="9" cy="18" r="6"></circle><path stroke="gray" fill="none" d="M21,18 Q39,0 57,18 Q39,36 21,18"></path></marker></defs><path class="er relationshipLine" d="M103.192,90L103.192,98.333C103.192,106.667,103.192,123.333,103.192,140C103.192,156.667,103.192,173.333,103.192,181.667L103.192,190" style="stroke: gray; fill: none;" marker-end="url(#ZERO_OR_MORE_END)" marker-start="url(#ONLY_ONE_START)"></path><path class="er relationshipLine" d="M103.192,375L103.192,383.333C103.192,391.667,103.192,408.333,130.953,431.412C158.714,454.49,214.236,483.98,241.997,498.724L269.758,513.469" style="stroke: gray; fill: none;" marker-end="url(#ONE_OR_MORE_END)" marker-start="url(#ZERO_OR_ONE_START)"></path><path class="er relationshipLine" d="M580.608,329L580.608,345C580.608,361,580.608,393,555.492,423.258C530.375,453.515,480.142,482.03,455.025,496.288L429.908,510.545" style="stroke: gray; fill: none;" marker-end="url(#ZERO_OR_MORE_END)" marker-start="url(#ONLY_ONE_START)"></path><path class="er relationshipLine" d="M349.833,637L349.833,645.333C349.833,653.667,349.833,670.333,319.892,692.286C289.95,714.239,230.067,741.478,200.125,755.097L170.183,768.716" style="stroke: gray; fill: none;" marker-end="url(#ONE_OR_MORE_END)" marker-start="url(#ONLY_ONE_START)"></path><path class="er relationshipLine" d="M349.833,329L349.833,345C349.833,361,349.833,393,349.833,417.333C349.833,441.667,349.833,458.333,349.833,466.667L349.833,475" style="stroke: gray; fill: none;" marker-end="url(#ZERO_OR_MORE_END)" marker-start="url(#ONLY_ONE_START)"></path><path class="er relationshipLine" d="M95.35,625.5L95.35,635.75C95.35,646,95.35,666.5,96.666,685.083C97.981,703.667,100.612,720.333,101.928,728.667L103.244,737" style="stroke: gray; fill: none;" marker-end="url(#ZERO_OR_MORE_END)" marker-start="url(#ONLY_ONE_START)"></path><path class="er relationshipLine" d="M411.665,637L418.027,645.333C424.388,653.667,437.111,670.333,443.472,688.917C449.833,707.5,449.833,728,449.833,738.25L449.833,748.5" style="stroke: gray; fill: none;" marker-end="url(#ONLY_ONE_END)" marker-start="url(#ONLY_ONE_START)"></path><g id="entity-SECTION-b26021d3-b26c-54b6-a477-eddbfc646bcf" transform="translate(33.883331298828125,20 )"><rect class="er entityBox" x="0" y="0" width="138.61666679382324" height="70"></rect><text class="er entityLabel" id="text-entity-SECTION-b26021d3-b26c-54b6-a477-eddbfc646bcf" x="0" y="0" style="dominant-baseline: middle; text-anchor: middle; font-size: 12px;" transform="translate(69.30833339691162,12)">SECTION</text><rect class="er attributeBoxOdd" x="0" y="24" width="59.11666488647461" height="23"></rect><text class="er entityLabel" id="text-entity-SECTION-b26021d3-b26c-54b6-a477-eddbfc646bcf-attr-1-type" x="0" y="0" style="dominant-baseline: middle; font-size: 10.2px;" transform="translate(5,35.5)">INT</text><rect class="er attributeBoxOdd" x="59.11666488647461" y="24" width="55.900001525878906" height="23"></rect><text class="er entityLabel" id="text-entity-SECTION-b26021d3-b26c-54b6-a477-eddbfc646bcf-attr-1-name" x="0" y="0" style="dominant-baseline: middle; font-size: 10.2px;" transform="translate(64.11666488647461,35.5)">section_id</text><rect class="er attributeBoxOdd" x="115.01666641235352" y="24" width="23.600000381469727" height="23"></rect><text class="er entityLabel" id="text-entity-SECTION-b26021d3-b26c-54b6-a477-eddbfc646bcf-attr-1-key" x="0" y="0" style="dominant-baseline: middle; font-size: 10.2px;" transform="translate(120.01666641235352,35.5)">PK</text><rect class="er attributeBoxEven" x="0" y="47" width="59.11666488647461" height="23"></rect><text class="er entityLabel" id="text-entity-SECTION-b26021d3-b26c-54b6-a477-eddbfc646bcf-attr-2-type" x="0" y="0" style="dominant-baseline: middle; font-size: 10.2px;" transform="translate(5,58.5)">VARCHAR</text><rect class="er attributeBoxEven" x="59.11666488647461" y="47" width="55.900001525878906" height="23"></rect><text class="er entityLabel" id="text-entity-SECTION-b26021d3-b26c-54b6-a477-eddbfc646bcf-attr-2-name" x="0" y="0" style="dominant-baseline: middle; font-size: 10.2px;" transform="translate(64.11666488647461,58.5)">name</text><rect class="er attributeBoxEven" x="115.01666641235352" y="47" width="23.600000381469727" height="23"></rect><text class="er entityLabel" id="text-entity-SECTION-b26021d3-b26c-54b6-a477-eddbfc646bcf-attr-2-key" x="0" y="0" style="dominant-baseline: middle; font-size: 10.2px;" transform="translate(120.01666641235352,58.5)"></text></g><g id="entity-STUDENT-1b2391c8-f2ba-530c-95a9-6a5256c98860" transform="translate(20,190 )"><rect class="er entityBox" x="0" y="0" width="166.3833293914795" height="185"></rect><text class="er entityLabel" id="text-entity-STUDENT-1b2391c8-f2ba-530c-95a9-6a5256c98860" x="0" y="0" style="dominant-baseline: middle; text-anchor: middle; font-size: 12px;" transform="translate(83.19166469573975,12)">STUDENT</text><rect class="er attributeBoxOdd" x="0" y="24" width="59.11666488647461" height="23"></rect><text class="er entityLabel" id="text-entity-STUDENT-1b2391c8-f2ba-530c-95a9-6a5256c98860-attr-1-type" x="0" y="0" style="dominant-baseline: middle; font-size: 10.2px;" transform="translate(5,35.5)">INT</text><rect class="er attributeBoxOdd" x="59.11666488647461" y="24" width="83.66666412353516" height="23"></rect><text class="er entityLabel" id="text-entity-STUDENT-1b2391c8-f2ba-530c-95a9-6a5256c98860-attr-1-name" x="0" y="0" style="dominant-baseline: middle; font-size: 10.2px;" transform="translate(64.11666488647461,35.5)">student_id</text><rect class="er attributeBoxOdd" x="142.78332901000977" y="24" width="23.600000381469727" height="23"></rect><text class="er entityLabel" id="text-entity-STUDENT-1b2391c8-f2ba-530c-95a9-6a5256c98860-attr-1-key" x="0" y="0" style="dominant-baseline: middle; font-size: 10.2px;" transform="translate(147.78332901000977,35.5)">PK</text><rect class="er attributeBoxEven" x="0" y="47" width="59.11666488647461" height="23"></rect><text class="er entityLabel" id="text-entity-STUDENT-1b2391c8-f2ba-530c-95a9-6a5256c98860-attr-2-type" x="0" y="0" style="dominant-baseline: middle; font-size: 10.2px;" transform="translate(5,58.5)">VARCHAR</text><rect class="er attributeBoxEven" x="59.11666488647461" y="47" width="83.66666412353516" height="23"></rect><text class="er entityLabel" id="text-entity-STUDENT-1b2391c8-f2ba-530c-95a9-6a5256c98860-attr-2-name" x="0" y="0" style="dominant-baseline: middle; font-size: 10.2px;" transform="translate(64.11666488647461,58.5)">surname</text><rect class="er attributeBoxEven" x="142.78332901000977" y="47" width="23.600000381469727" height="23"></rect><text class="er entityLabel" id="text-entity-STUDENT-1b2391c8-f2ba-530c-95a9-6a5256c98860-attr-2-key" x="0" y="0" style="dominant-baseline: middle; font-size: 10.2px;" transform="translate(147.78332901000977,58.5)"></text><rect class="er attributeBoxOdd" x="0" y="70" width="59.11666488647461" height="23"></rect><text class="er entityLabel" id="text-entity-STUDENT-1b2391c8-f2ba-530c-95a9-6a5256c98860-attr-3-type" x="0" y="0" style="dominant-baseline: middle; font-size: 10.2px;" transform="translate(5,81.5)">VARCHAR</text><rect class="er attributeBoxOdd" x="59.11666488647461" y="70" width="83.66666412353516" height="23"></rect><text class="er entityLabel" id="text-entity-STUDENT-1b2391c8-f2ba-530c-95a9-6a5256c98860-attr-3-name" x="0" y="0" style="dominant-baseline: middle; font-size: 10.2px;" transform="translate(64.11666488647461,81.5)">middle_name</text><rect class="er attributeBoxOdd" x="142.78332901000977" y="70" width="23.600000381469727" height="23"></rect><text class="er entityLabel" id="text-entity-STUDENT-1b2391c8-f2ba-530c-95a9-6a5256c98860-attr-3-key" x="0" y="0" style="dominant-baseline: middle; font-size: 10.2px;" transform="translate(147.78332901000977,81.5)"></text><rect class="er attributeBoxEven" x="0" y="93" width="59.11666488647461" height="23"></rect><text class="er entityLabel" id="text-entity-STUDENT-1b2391c8-f2ba-530c-95a9-6a5256c98860-attr-4-type" x="0" y="0" style="dominant-baseline: middle; font-size: 10.2px;" transform="translate(5,104.5)">VARCHAR</text><rect class="er attributeBoxEven" x="59.11666488647461" y="93" width="83.66666412353516" height="23"></rect><text class="er entityLabel" id="text-entity-STUDENT-1b2391c8-f2ba-530c-95a9-6a5256c98860-attr-4-name" x="0" y="0" style="dominant-baseline: middle; font-size: 10.2px;" transform="translate(64.11666488647461,104.5)">given_name</text><rect class="er attributeBoxEven" x="142.78332901000977" y="93" width="23.600000381469727" height="23"></rect><text class="er entityLabel" id="text-entity-STUDENT-1b2391c8-f2ba-530c-95a9-6a5256c98860-attr-4-key" x="0" y="0" style="dominant-baseline: middle; font-size: 10.2px;" transform="translate(147.78332901000977,104.5)"></text><rect class="er attributeBoxOdd" x="0" y="116" width="59.11666488647461" height="23"></rect><text class="er entityLabel" id="text-entity-STUDENT-1b2391c8-f2ba-530c-95a9-6a5256c98860-attr-5-type" x="0" y="0" style="dominant-baseline: middle; font-size: 10.2px;" transform="translate(5,127.5)">VARCHAR</text><rect class="er attributeBoxOdd" x="59.11666488647461" y="116" width="83.66666412353516" height="23"></rect><text class="er entityLabel" id="text-entity-STUDENT-1b2391c8-f2ba-530c-95a9-6a5256c98860-attr-5-name" x="0" y="0" style="dominant-baseline: middle; font-size: 10.2px;" transform="translate(64.11666488647461,127.5)">email</text><rect class="er attributeBoxOdd" x="142.78332901000977" y="116" width="23.600000381469727" height="23"></rect><text class="er entityLabel" id="text-entity-STUDENT-1b2391c8-f2ba-530c-95a9-6a5256c98860-attr-5-key" x="0" y="0" style="dominant-baseline: middle; font-size: 10.2px;" transform="translate(147.78332901000977,127.5)"></text><rect class="er attributeBoxEven" x="0" y="139" width="59.11666488647461" height="23"></rect><text class="er entityLabel" id="text-entity-STUDENT-1b2391c8-f2ba-530c-95a9-6a5256c98860-attr-6-type" x="0" y="0" style="dominant-baseline: middle; font-size: 10.2px;" transform="translate(5,150.5)">VARCHAR</text><rect class="er attributeBoxEven" x="59.11666488647461" y="139" width="83.66666412353516" height="23"></rect><text class="er entityLabel" id="text-entity-STUDENT-1b2391c8-f2ba-530c-95a9-6a5256c98860-attr-6-name" x="0" y="0" style="dominant-baseline: middle; font-size: 10.2px;" transform="translate(64.11666488647461,150.5)">student_number</text><rect class="er attributeBoxEven" x="142.78332901000977" y="139" width="23.600000381469727" height="23"></rect><text class="er entityLabel" id="text-entity-STUDENT-1b2391c8-f2ba-530c-95a9-6a5256c98860-attr-6-key" x="0" y="0" style="dominant-baseline: middle; font-size: 10.2px;" transform="translate(147.78332901000977,150.5)"></text><rect class="er attributeBoxOdd" x="0" y="162" width="59.11666488647461" height="23"></rect><text class="er entityLabel" id="text-entity-STUDENT-1b2391c8-f2ba-530c-95a9-6a5256c98860-attr-7-type" x="0" y="0" style="dominant-baseline: middle; font-size: 10.2px;" transform="translate(5,173.5)">INT</text><rect class="er attributeBoxOdd" x="59.11666488647461" y="162" width="83.66666412353516" height="23"></rect><text class="er entityLabel" id="text-entity-STUDENT-1b2391c8-f2ba-530c-95a9-6a5256c98860-attr-7-name" x="0" y="0" style="dominant-baseline: middle; font-size: 10.2px;" transform="translate(64.11666488647461,173.5)">section_id</text><rect class="er attributeBoxOdd" x="142.78332901000977" y="162" width="23.600000381469727" height="23"></rect><text class="er entityLabel" id="text-entity-STUDENT-1b2391c8-f2ba-530c-95a9-6a5256c98860-attr-7-key" x="0" y="0" style="dominant-baseline: middle; font-size: 10.2px;" transform="translate(147.78332901000977,173.5)">FK</text></g><g id="entity-SURVEY-60a4e23e-e777-5af2-b8ab-6de1ab6fbbd8" transform="translate(286.3833312988281,236 )"><rect class="er entityBox" x="0" y="0" width="126.89999961853027" height="93"></rect><text class="er entityLabel" id="text-entity-SURVEY-60a4e23e-e777-5af2-b8ab-6de1ab6fbbd8" x="0" y="0" style="dominant-baseline: middle; text-anchor: middle; font-size: 12px;" transform="translate(63.44999980926514,12)">SURVEY</text><rect class="er attributeBoxOdd" x="0" y="24" width="44" height="23"></rect><text class="er entityLabel" id="text-entity-SURVEY-60a4e23e-e777-5af2-b8ab-6de1ab6fbbd8-attr-1-type" x="0" y="0" style="dominant-baseline: middle; font-size: 10.2px;" transform="translate(5,35.5)">int</text><rect class="er attributeBoxOdd" x="44" y="24" width="59.29999923706055" height="23"></rect><text class="er entityLabel" id="text-entity-SURVEY-60a4e23e-e777-5af2-b8ab-6de1ab6fbbd8-attr-1-name" x="0" y="0" style="dominant-baseline: middle; font-size: 10.2px;" transform="translate(49,35.5)">survey_id</text><rect class="er attributeBoxOdd" x="103.29999923706055" y="24" width="23.600000381469727" height="23"></rect><text class="er entityLabel" id="text-entity-SURVEY-60a4e23e-e777-5af2-b8ab-6de1ab6fbbd8-attr-1-key" x="0" y="0" style="dominant-baseline: middle; font-size: 10.2px;" transform="translate(108.29999923706055,35.5)">PK</text><rect class="er attributeBoxEven" x="0" y="47" width="44" height="23"></rect><text class="er entityLabel" id="text-entity-SURVEY-60a4e23e-e777-5af2-b8ab-6de1ab6fbbd8-attr-2-type" x="0" y="0" style="dominant-baseline: middle; font-size: 10.2px;" transform="translate(5,58.5)">varchar</text><rect class="er attributeBoxEven" x="44" y="47" width="59.29999923706055" height="23"></rect><text class="er entityLabel" id="text-entity-SURVEY-60a4e23e-e777-5af2-b8ab-6de1ab6fbbd8-attr-2-name" x="0" y="0" style="dominant-baseline: middle; font-size: 10.2px;" transform="translate(49,58.5)">title</text><rect class="er attributeBoxEven" x="103.29999923706055" y="47" width="23.600000381469727" height="23"></rect><text class="er entityLabel" id="text-entity-SURVEY-60a4e23e-e777-5af2-b8ab-6de1ab6fbbd8-attr-2-key" x="0" y="0" style="dominant-baseline: middle; font-size: 10.2px;" transform="translate(108.29999923706055,58.5)"></text><rect class="er attributeBoxOdd" x="0" y="70" width="44" height="23"></rect><text class="er entityLabel" id="text-entity-SURVEY-60a4e23e-e777-5af2-b8ab-6de1ab6fbbd8-attr-3-type" x="0" y="0" style="dominant-baseline: middle; font-size: 10.2px;" transform="translate(5,81.5)">varchar</text><rect class="er attributeBoxOdd" x="44" y="70" width="59.29999923706055" height="23"></rect><text class="er entityLabel" id="text-entity-SURVEY-60a4e23e-e777-5af2-b8ab-6de1ab6fbbd8-attr-3-name" x="0" y="0" style="dominant-baseline: middle; font-size: 10.2px;" transform="translate(49,81.5)">description</text><rect class="er attributeBoxOdd" x="103.29999923706055" y="70" width="23.600000381469727" height="23"></rect><text class="er entityLabel" id="text-entity-SURVEY-60a4e23e-e777-5af2-b8ab-6de1ab6fbbd8-attr-3-key" x="0" y="0" style="dominant-baseline: middle; font-size: 10.2px;" transform="translate(108.29999923706055,81.5)"></text></g><g id="entity-TARGET-4eb98959-9ffb-5384-a9ee-d1ddde96c2a2" transform="translate(513.283332824707,236 )"><rect class="er entityBox" x="0" y="0" width="134.64999961853027" height="93"></rect><text class="er entityLabel" id="text-entity-TARGET-4eb98959-9ffb-5384-a9ee-d1ddde96c2a2" x="0" y="0" style="dominant-baseline: middle; text-anchor: middle; font-size: 12px;" transform="translate(67.32499980926514,12)">TARGET</text><rect class="er attributeBoxOdd" x="0" y="24" width="59.11666488647461" height="23"></rect><text class="er entityLabel" id="text-entity-TARGET-4eb98959-9ffb-5384-a9ee-d1ddde96c2a2-attr-1-type" x="0" y="0" style="dominant-baseline: middle; font-size: 10.2px;" transform="translate(5,35.5)">INT</text><rect class="er attributeBoxOdd" x="59.11666488647461" y="24" width="51.93333435058594" height="23"></rect><text class="er entityLabel" id="text-entity-TARGET-4eb98959-9ffb-5384-a9ee-d1ddde96c2a2-attr-1-name" x="0" y="0" style="dominant-baseline: middle; font-size: 10.2px;" transform="translate(64.11666488647461,35.5)">target_id</text><rect class="er attributeBoxOdd" x="111.04999923706055" y="24" width="23.600000381469727" height="23"></rect><text class="er entityLabel" id="text-entity-TARGET-4eb98959-9ffb-5384-a9ee-d1ddde96c2a2-attr-1-key" x="0" y="0" style="dominant-baseline: middle; font-size: 10.2px;" transform="translate(116.04999923706055,35.5)">PK</text><rect class="er attributeBoxEven" x="0" y="47" width="59.11666488647461" height="23"></rect><text class="er entityLabel" id="text-entity-TARGET-4eb98959-9ffb-5384-a9ee-d1ddde96c2a2-attr-2-type" x="0" y="0" style="dominant-baseline: middle; font-size: 10.2px;" transform="translate(5,58.5)">VARCHAR</text><rect class="er attributeBoxEven" x="59.11666488647461" y="47" width="51.93333435058594" height="23"></rect><text class="er entityLabel" id="text-entity-TARGET-4eb98959-9ffb-5384-a9ee-d1ddde96c2a2-attr-2-name" x="0" y="0" style="dominant-baseline: middle; font-size: 10.2px;" transform="translate(64.11666488647461,58.5)">instructor</text><rect class="er attributeBoxEven" x="111.04999923706055" y="47" width="23.600000381469727" height="23"></rect><text class="er entityLabel" id="text-entity-TARGET-4eb98959-9ffb-5384-a9ee-d1ddde96c2a2-attr-2-key" x="0" y="0" style="dominant-baseline: middle; font-size: 10.2px;" transform="translate(116.04999923706055,58.5)"></text><rect class="er attributeBoxOdd" x="0" y="70" width="59.11666488647461" height="23"></rect><text class="er entityLabel" id="text-entity-TARGET-4eb98959-9ffb-5384-a9ee-d1ddde96c2a2-attr-3-type" x="0" y="0" style="dominant-baseline: middle; font-size: 10.2px;" transform="translate(5,81.5)">VARCHAR</text><rect class="er attributeBoxOdd" x="59.11666488647461" y="70" width="51.93333435058594" height="23"></rect><text class="er entityLabel" id="text-entity-TARGET-4eb98959-9ffb-5384-a9ee-d1ddde96c2a2-attr-3-name" x="0" y="0" style="dominant-baseline: middle; font-size: 10.2px;" transform="translate(64.11666488647461,81.5)">subject</text><rect class="er attributeBoxOdd" x="111.04999923706055" y="70" width="23.600000381469727" height="23"></rect><text class="er entityLabel" id="text-entity-TARGET-4eb98959-9ffb-5384-a9ee-d1ddde96c2a2-attr-3-key" x="0" y="0" style="dominant-baseline: middle; font-size: 10.2px;" transform="translate(116.04999923706055,81.5)"></text></g><g id="entity-QUESTION-d9c772b9-31c3-5e20-9b2c-a21ca6d5caaa" transform="translate(20.941669464111328,486.5 )"><rect class="er entityBox" x="0" y="0" width="148.81666374206543" height="139"></rect><text class="er entityLabel" id="text-entity-QUESTION-d9c772b9-31c3-5e20-9b2c-a21ca6d5caaa" x="0" y="0" style="dominant-baseline: middle; text-anchor: middle; font-size: 12px;" transform="translate(74.40833187103271,12)">QUESTION</text><rect class="er attributeBoxOdd" x="0" y="24" width="59.11666488647461" height="23"></rect><text class="er entityLabel" id="text-entity-QUESTION-d9c772b9-31c3-5e20-9b2c-a21ca6d5caaa-attr-1-type" x="0" y="0" style="dominant-baseline: middle; font-size: 10.2px;" transform="translate(5,35.5)">INT</text><rect class="er attributeBoxOdd" x="59.11666488647461" y="24" width="66.0999984741211" height="23"></rect><text class="er entityLabel" id="text-entity-QUESTION-d9c772b9-31c3-5e20-9b2c-a21ca6d5caaa-attr-1-name" x="0" y="0" style="dominant-baseline: middle; font-size: 10.2px;" transform="translate(64.11666488647461,35.5)">question_id</text><rect class="er attributeBoxOdd" x="125.2166633605957" y="24" width="23.600000381469727" height="23"></rect><text class="er entityLabel" id="text-entity-QUESTION-d9c772b9-31c3-5e20-9b2c-a21ca6d5caaa-attr-1-key" x="0" y="0" style="dominant-baseline: middle; font-size: 10.2px;" transform="translate(130.2166633605957,35.5)">PK</text><rect class="er attributeBoxEven" x="0" y="47" width="59.11666488647461" height="23"></rect><text class="er entityLabel" id="text-entity-QUESTION-d9c772b9-31c3-5e20-9b2c-a21ca6d5caaa-attr-2-type" x="0" y="0" style="dominant-baseline: middle; font-size: 10.2px;" transform="translate(5,58.5)">VARCHAR</text><rect class="er attributeBoxEven" x="59.11666488647461" y="47" width="66.0999984741211" height="23"></rect><text class="er entityLabel" id="text-entity-QUESTION-d9c772b9-31c3-5e20-9b2c-a21ca6d5caaa-attr-2-name" x="0" y="0" style="dominant-baseline: middle; font-size: 10.2px;" transform="translate(64.11666488647461,58.5)">category</text><rect class="er attributeBoxEven" x="125.2166633605957" y="47" width="23.600000381469727" height="23"></rect><text class="er entityLabel" id="text-entity-QUESTION-d9c772b9-31c3-5e20-9b2c-a21ca6d5caaa-attr-2-key" x="0" y="0" style="dominant-baseline: middle; font-size: 10.2px;" transform="translate(130.2166633605957,58.5)"></text><rect class="er attributeBoxOdd" x="0" y="70" width="59.11666488647461" height="23"></rect><text class="er entityLabel" id="text-entity-QUESTION-d9c772b9-31c3-5e20-9b2c-a21ca6d5caaa-attr-3-type" x="0" y="0" style="dominant-baseline: middle; font-size: 10.2px;" transform="translate(5,81.5)">VARCHAR</text><rect class="er attributeBoxOdd" x="59.11666488647461" y="70" width="66.0999984741211" height="23"></rect><text class="er entityLabel" id="text-entity-QUESTION-d9c772b9-31c3-5e20-9b2c-a21ca6d5caaa-attr-3-name" x="0" y="0" style="dominant-baseline: middle; font-size: 10.2px;" transform="translate(64.11666488647461,81.5)">category_ph</text><rect class="er attributeBoxOdd" x="125.2166633605957" y="70" width="23.600000381469727" height="23"></rect><text class="er entityLabel" id="text-entity-QUESTION-d9c772b9-31c3-5e20-9b2c-a21ca6d5caaa-attr-3-key" x="0" y="0" style="dominant-baseline: middle; font-size: 10.2px;" transform="translate(130.2166633605957,81.5)"></text><rect class="er attributeBoxEven" x="0" y="93" width="59.11666488647461" height="23"></rect><text class="er entityLabel" id="text-entity-QUESTION-d9c772b9-31c3-5e20-9b2c-a21ca6d5caaa-attr-4-type" x="0" y="0" style="dominant-baseline: middle; font-size: 10.2px;" transform="translate(5,104.5)">TEXT</text><rect class="er attributeBoxEven" x="59.11666488647461" y="93" width="66.0999984741211" height="23"></rect><text class="er entityLabel" id="text-entity-QUESTION-d9c772b9-31c3-5e20-9b2c-a21ca6d5caaa-attr-4-name" x="0" y="0" style="dominant-baseline: middle; font-size: 10.2px;" transform="translate(64.11666488647461,104.5)">text</text><rect class="er attributeBoxEven" x="125.2166633605957" y="93" width="23.600000381469727" height="23"></rect><text class="er entityLabel" id="text-entity-QUESTION-d9c772b9-31c3-5e20-9b2c-a21ca6d5caaa-attr-4-key" x="0" y="0" style="dominant-baseline: middle; font-size: 10.2px;" transform="translate(130.2166633605957,104.5)"></text><rect class="er attributeBoxOdd" x="0" y="116" width="59.11666488647461" height="23"></rect><text class="er entityLabel" id="text-entity-QUESTION-d9c772b9-31c3-5e20-9b2c-a21ca6d5caaa-attr-5-type" x="0" y="0" style="dominant-baseline: middle; font-size: 10.2px;" transform="translate(5,127.5)">TEXT</text><rect class="er attributeBoxOdd" x="59.11666488647461" y="116" width="66.0999984741211" height="23"></rect><text class="er entityLabel" id="text-entity-QUESTION-d9c772b9-31c3-5e20-9b2c-a21ca6d5caaa-attr-5-name" x="0" y="0" style="dominant-baseline: middle; font-size: 10.2px;" transform="translate(64.11666488647461,127.5)">text_ph</text><rect class="er attributeBoxOdd" x="125.2166633605957" y="116" width="23.600000381469727" height="23"></rect><text class="er entityLabel" id="text-entity-QUESTION-d9c772b9-31c3-5e20-9b2c-a21ca6d5caaa-attr-5-key" x="0" y="0" style="dominant-baseline: middle; font-size: 10.2px;" transform="translate(130.2166633605957,127.5)"></text></g><g id="entity-RESPONSE-8fa7fdf9-0d75-5955-8028-f6c38c016eed" transform="translate(269.7583351135254,475 )"><rect class="er entityBox" x="0" y="0" width="160.149995803833" height="162"></rect><text class="er entityLabel" id="text-entity-RESPONSE-8fa7fdf9-0d75-5955-8028-f6c38c016eed" x="0" y="0" style="dominant-baseline: middle; text-anchor: middle; font-size: 12px;" transform="translate(80.0749979019165,12)">RESPONSE</text><rect class="er attributeBoxOdd" x="0" y="24" width="60.81666564941406" height="23"></rect><text class="er entityLabel" id="text-entity-RESPONSE-8fa7fdf9-0d75-5955-8028-f6c38c016eed-attr-1-type" x="0" y="0" style="dominant-baseline: middle; font-size: 10.2px;" transform="translate(5,35.5)">INT</text><rect class="er attributeBoxOdd" x="60.81666564941406" y="24" width="75.73332977294922" height="23"></rect><text class="er entityLabel" id="text-entity-RESPONSE-8fa7fdf9-0d75-5955-8028-f6c38c016eed-attr-1-name" x="0" y="0" style="dominant-baseline: middle; font-size: 10.2px;" transform="translate(65.81666564941406,35.5)">response_id</text><rect class="er attributeBoxOdd" x="136.54999542236328" y="24" width="23.600000381469727" height="23"></rect><text class="er entityLabel" id="text-entity-RESPONSE-8fa7fdf9-0d75-5955-8028-f6c38c016eed-attr-1-key" x="0" y="0" style="dominant-baseline: middle; font-size: 10.2px;" transform="translate(141.54999542236328,35.5)">PK</text><rect class="er attributeBoxEven" x="0" y="47" width="60.81666564941406" height="23"></rect><text class="er entityLabel" id="text-entity-RESPONSE-8fa7fdf9-0d75-5955-8028-f6c38c016eed-attr-2-type" x="0" y="0" style="dominant-baseline: middle; font-size: 10.2px;" transform="translate(5,58.5)">INT</text><rect class="er attributeBoxEven" x="60.81666564941406" y="47" width="75.73332977294922" height="23"></rect><text class="er entityLabel" id="text-entity-RESPONSE-8fa7fdf9-0d75-5955-8028-f6c38c016eed-attr-2-name" x="0" y="0" style="dominant-baseline: middle; font-size: 10.2px;" transform="translate(65.81666564941406,58.5)">survey_id</text><rect class="er attributeBoxEven" x="136.54999542236328" y="47" width="23.600000381469727" height="23"></rect><text class="er entityLabel" id="text-entity-RESPONSE-8fa7fdf9-0d75-5955-8028-f6c38c016eed-attr-2-key" x="0" y="0" style="dominant-baseline: middle; font-size: 10.2px;" transform="translate(141.54999542236328,58.5)">FK</text><rect class="er attributeBoxOdd" x="0" y="70" width="60.81666564941406" height="23"></rect><text class="er entityLabel" id="text-entity-RESPONSE-8fa7fdf9-0d75-5955-8028-f6c38c016eed-attr-3-type" x="0" y="0" style="dominant-baseline: middle; font-size: 10.2px;" transform="translate(5,81.5)">INT</text><rect class="er attributeBoxOdd" x="60.81666564941406" y="70" width="75.73332977294922" height="23"></rect><text class="er entityLabel" id="text-entity-RESPONSE-8fa7fdf9-0d75-5955-8028-f6c38c016eed-attr-3-name" x="0" y="0" style="dominant-baseline: middle; font-size: 10.2px;" transform="translate(65.81666564941406,81.5)">student_id</text><rect class="er attributeBoxOdd" x="136.54999542236328" y="70" width="23.600000381469727" height="23"></rect><text class="er entityLabel" id="text-entity-RESPONSE-8fa7fdf9-0d75-5955-8028-f6c38c016eed-attr-3-key" x="0" y="0" style="dominant-baseline: middle; font-size: 10.2px;" transform="translate(141.54999542236328,81.5)">FK</text><rect class="er attributeBoxEven" x="0" y="93" width="60.81666564941406" height="23"></rect><text class="er entityLabel" id="text-entity-RESPONSE-8fa7fdf9-0d75-5955-8028-f6c38c016eed-attr-4-type" x="0" y="0" style="dominant-baseline: middle; font-size: 10.2px;" transform="translate(5,104.5)">INT</text><rect class="er attributeBoxEven" x="60.81666564941406" y="93" width="75.73332977294922" height="23"></rect><text class="er entityLabel" id="text-entity-RESPONSE-8fa7fdf9-0d75-5955-8028-f6c38c016eed-attr-4-name" x="0" y="0" style="dominant-baseline: middle; font-size: 10.2px;" transform="translate(65.81666564941406,104.5)">target_id</text><rect class="er attributeBoxEven" x="136.54999542236328" y="93" width="23.600000381469727" height="23"></rect><text class="er entityLabel" id="text-entity-RESPONSE-8fa7fdf9-0d75-5955-8028-f6c38c016eed-attr-4-key" x="0" y="0" style="dominant-baseline: middle; font-size: 10.2px;" transform="translate(141.54999542236328,104.5)">FK</text><rect class="er attributeBoxOdd" x="0" y="116" width="60.81666564941406" height="23"></rect><text class="er entityLabel" id="text-entity-RESPONSE-8fa7fdf9-0d75-5955-8028-f6c38c016eed-attr-5-type" x="0" y="0" style="dominant-baseline: middle; font-size: 10.2px;" transform="translate(5,127.5)">DATETIME</text><rect class="er attributeBoxOdd" x="60.81666564941406" y="116" width="75.73332977294922" height="23"></rect><text class="er entityLabel" id="text-entity-RESPONSE-8fa7fdf9-0d75-5955-8028-f6c38c016eed-attr-5-name" x="0" y="0" style="dominant-baseline: middle; font-size: 10.2px;" transform="translate(65.81666564941406,127.5)">created_at</text><rect class="er attributeBoxOdd" x="136.54999542236328" y="116" width="23.600000381469727" height="23"></rect><text class="er entityLabel" id="text-entity-RESPONSE-8fa7fdf9-0d75-5955-8028-f6c38c016eed-attr-5-key" x="0" y="0" style="dominant-baseline: middle; font-size: 10.2px;" transform="translate(141.54999542236328,127.5)"></text><rect class="er attributeBoxEven" x="0" y="139" width="60.81666564941406" height="23"></rect><text class="er entityLabel" id="text-entity-RESPONSE-8fa7fdf9-0d75-5955-8028-f6c38c016eed-attr-6-type" x="0" y="0" style="dominant-baseline: middle; font-size: 10.2px;" transform="translate(5,150.5)">BOOLEAN</text><rect class="er attributeBoxEven" x="60.81666564941406" y="139" width="75.73332977294922" height="23"></rect><text class="er entityLabel" id="text-entity-RESPONSE-8fa7fdf9-0d75-5955-8028-f6c38c016eed-attr-6-name" x="0" y="0" style="dominant-baseline: middle; font-size: 10.2px;" transform="translate(65.81666564941406,150.5)">is_anonymous</text><rect class="er attributeBoxEven" x="136.54999542236328" y="139" width="23.600000381469727" height="23"></rect><text class="er entityLabel" id="text-entity-RESPONSE-8fa7fdf9-0d75-5955-8028-f6c38c016eed-attr-6-key" x="0" y="0" style="dominant-baseline: middle; font-size: 10.2px;" transform="translate(141.54999542236328,150.5)"></text></g><g id="entity-ANSWER-55c64165-e764-5f35-92a0-80bb3467ec45" transform="translate(54.616668701171875,737 )"><rect class="er entityBox" x="0" y="0" width="115.56666564941406" height="116"></rect><text class="er entityLabel" id="text-entity-ANSWER-55c64165-e764-5f35-92a0-80bb3467ec45" x="0" y="0" style="dominant-baseline: middle; text-anchor: middle; font-size: 12px;" transform="translate(57.78333282470703,12)">ANSWER</text><rect class="er attributeBoxOdd" x="0" y="24" width="26.433332443237305" height="23"></rect><text class="er entityLabel" id="text-entity-ANSWER-55c64165-e764-5f35-92a0-80bb3467ec45-attr-1-type" x="0" y="0" style="dominant-baseline: middle; font-size: 10.2px;" transform="translate(5,35.5)">INT</text><rect class="er attributeBoxOdd" x="26.433332443237305" y="24" width="65.53333282470703" height="23"></rect><text class="er entityLabel" id="text-entity-ANSWER-55c64165-e764-5f35-92a0-80bb3467ec45-attr-1-name" x="0" y="0" style="dominant-baseline: middle; font-size: 10.2px;" transform="translate(31.433332443237305,35.5)">answer_id</text><rect class="er attributeBoxOdd" x="91.96666526794434" y="24" width="23.600000381469727" height="23"></rect><text class="er entityLabel" id="text-entity-ANSWER-55c64165-e764-5f35-92a0-80bb3467ec45-attr-1-key" x="0" y="0" style="dominant-baseline: middle; font-size: 10.2px;" transform="translate(96.96666526794434,35.5)">PK</text><rect class="er attributeBoxEven" x="0" y="47" width="26.433332443237305" height="23"></rect><text class="er entityLabel" id="text-entity-ANSWER-55c64165-e764-5f35-92a0-80bb3467ec45-attr-2-type" x="0" y="0" style="dominant-baseline: middle; font-size: 10.2px;" transform="translate(5,58.5)">INT</text><rect class="er attributeBoxEven" x="26.433332443237305" y="47" width="65.53333282470703" height="23"></rect><text class="er entityLabel" id="text-entity-ANSWER-55c64165-e764-5f35-92a0-80bb3467ec45-attr-2-name" x="0" y="0" style="dominant-baseline: middle; font-size: 10.2px;" transform="translate(31.433332443237305,58.5)">response_id</text><rect class="er attributeBoxEven" x="91.96666526794434" y="47" width="23.600000381469727" height="23"></rect><text class="er entityLabel" id="text-entity-ANSWER-55c64165-e764-5f35-92a0-80bb3467ec45-attr-2-key" x="0" y="0" style="dominant-baseline: middle; font-size: 10.2px;" transform="translate(96.96666526794434,58.5)">FK</text><rect class="er attributeBoxOdd" x="0" y="70" width="26.433332443237305" height="23"></rect><text class="er entityLabel" id="text-entity-ANSWER-55c64165-e764-5f35-92a0-80bb3467ec45-attr-3-type" x="0" y="0" style="dominant-baseline: middle; font-size: 10.2px;" transform="translate(5,81.5)">INT</text><rect class="er attributeBoxOdd" x="26.433332443237305" y="70" width="65.53333282470703" height="23"></rect><text class="er entityLabel" id="text-entity-ANSWER-55c64165-e764-5f35-92a0-80bb3467ec45-attr-3-name" x="0" y="0" style="dominant-baseline: middle; font-size: 10.2px;" transform="translate(31.433332443237305,81.5)">question_id</text><rect class="er attributeBoxOdd" x="91.96666526794434" y="70" width="23.600000381469727" height="23"></rect><text class="er entityLabel" id="text-entity-ANSWER-55c64165-e764-5f35-92a0-80bb3467ec45-attr-3-key" x="0" y="0" style="dominant-baseline: middle; font-size: 10.2px;" transform="translate(96.96666526794434,81.5)">FK</text><rect class="er attributeBoxEven" x="0" y="93" width="26.433332443237305" height="23"></rect><text class="er entityLabel" id="text-entity-ANSWER-55c64165-e764-5f35-92a0-80bb3467ec45-attr-4-type" x="0" y="0" style="dominant-baseline: middle; font-size: 10.2px;" transform="translate(5,104.5)">INT</text><rect class="er attributeBoxEven" x="26.433332443237305" y="93" width="65.53333282470703" height="23"></rect><text class="er entityLabel" id="text-entity-ANSWER-55c64165-e764-5f35-92a0-80bb3467ec45-attr-4-name" x="0" y="0" style="dominant-baseline: middle; font-size: 10.2px;" transform="translate(31.433332443237305,104.5)">value</text><rect class="er attributeBoxEven" x="91.96666526794434" y="93" width="23.600000381469727" height="23"></rect><text class="er entityLabel" id="text-entity-ANSWER-55c64165-e764-5f35-92a0-80bb3467ec45-attr-4-key" x="0" y="0" style="dominant-baseline: middle; font-size: 10.2px;" transform="translate(96.96666526794434,104.5)"></text></g><g id="entity-FEEDBACK-a2a68488-d72e-5deb-926f-bf3b9aae1ed1" transform="translate(387.2333335876465,748.5 )"><rect class="er entityBox" x="0" y="0" width="125.20000076293945" height="93"></rect><text class="er entityLabel" id="text-entity-FEEDBACK-a2a68488-d72e-5deb-926f-bf3b9aae1ed1" x="0" y="0" style="dominant-baseline: middle; text-anchor: middle; font-size: 12px;" transform="translate(62.60000038146973,12)">FEEDBACK</text><rect class="er attributeBoxOdd" x="0" y="24" width="36.066667556762695" height="23"></rect><text class="er entityLabel" id="text-entity-FEEDBACK-a2a68488-d72e-5deb-926f-bf3b9aae1ed1-attr-1-type" x="0" y="0" style="dominant-baseline: middle; font-size: 10.2px;" transform="translate(5,35.5)">INT</text><rect class="er attributeBoxOdd" x="36.066667556762695" y="24" width="65.53333282470703" height="23"></rect><text class="er entityLabel" id="text-entity-FEEDBACK-a2a68488-d72e-5deb-926f-bf3b9aae1ed1-attr-1-name" x="0" y="0" style="dominant-baseline: middle; font-size: 10.2px;" transform="translate(41.066667556762695,35.5)">feedback_id</text><rect class="er attributeBoxOdd" x="101.60000038146973" y="24" width="23.600000381469727" height="23"></rect><text class="er entityLabel" id="text-entity-FEEDBACK-a2a68488-d72e-5deb-926f-bf3b9aae1ed1-attr-1-key" x="0" y="0" style="dominant-baseline: middle; font-size: 10.2px;" transform="translate(106.60000038146973,35.5)">PK</text><rect class="er attributeBoxEven" x="0" y="47" width="36.066667556762695" height="23"></rect><text class="er entityLabel" id="text-entity-FEEDBACK-a2a68488-d72e-5deb-926f-bf3b9aae1ed1-attr-2-type" x="0" y="0" style="dominant-baseline: middle; font-size: 10.2px;" transform="translate(5,58.5)">INT</text><rect class="er attributeBoxEven" x="36.066667556762695" y="47" width="65.53333282470703" height="23"></rect><text class="er entityLabel" id="text-entity-FEEDBACK-a2a68488-d72e-5deb-926f-bf3b9aae1ed1-attr-2-name" x="0" y="0" style="dominant-baseline: middle; font-size: 10.2px;" transform="translate(41.066667556762695,58.5)">response_id</text><rect class="er attributeBoxEven" x="101.60000038146973" y="47" width="23.600000381469727" height="23"></rect><text class="er entityLabel" id="text-entity-FEEDBACK-a2a68488-d72e-5deb-926f-bf3b9aae1ed1-attr-2-key" x="0" y="0" style="dominant-baseline: middle; font-size: 10.2px;" transform="translate(106.60000038146973,58.5)">FK</text><rect class="er attributeBoxOdd" x="0" y="70" width="36.066667556762695" height="23"></rect><text class="er entityLabel" id="text-entity-FEEDBACK-a2a68488-d72e-5deb-926f-bf3b9aae1ed1-attr-3-type" x="0" y="0" style="dominant-baseline: middle; font-size: 10.2px;" transform="translate(5,81.5)">TEXT</text><rect class="er attributeBoxOdd" x="36.066667556762695" y="70" width="65.53333282470703" height="23"></rect><text class="er entityLabel" id="text-entity-FEEDBACK-a2a68488-d72e-5deb-926f-bf3b9aae1ed1-attr-3-name" x="0" y="0" style="dominant-baseline: middle; font-size: 10.2px;" transform="translate(41.066667556762695,81.5)">text</text><rect class="er attributeBoxOdd" x="101.60000038146973" y="70" width="23.600000381469727" height="23"></rect><text class="er entityLabel" id="text-entity-FEEDBACK-a2a68488-d72e-5deb-926f-bf3b9aae1ed1-attr-3-key" x="0" y="0" style="dominant-baseline: middle; font-size: 10.2px;" transform="translate(106.60000038146973,81.5)"></text></g><rect class="er relationshipLabelBox" x="103.19200134277344" y="140" width="0" height="0"></rect><text class="er relationshipLabel" id="rel36" x="103.19200134277344" y="140" style="text-anchor: middle; dominant-baseline: middle; font-size: 12px;"></text><rect class="er relationshipLabelBox" x="170.24044799804688" y="458.5188903808594" width="0" height="0"></rect><text class="er relationshipLabel" id="rel37" x="170.24044799804688" y="458.5188903808594" style="text-anchor: middle; dominant-baseline: middle; font-size: 12px;"></text><rect class="er relationshipLabelBox" x="536.560791015625" y="442.18963623046875" width="0" height="0"></rect><text class="er relationshipLabel" id="rel38" x="536.560791015625" y="442.18963623046875" style="text-anchor: middle; dominant-baseline: middle; font-size: 12px;"></text><rect class="er relationshipLabelBox" x="276.2381591796875" y="718.4779663085938" width="0" height="0"></rect><text class="er relationshipLabel" id="rel39" x="276.2381591796875" y="718.4779663085938" style="text-anchor: middle; dominant-baseline: middle; font-size: 12px;"></text><rect class="er relationshipLabelBox" x="349.8330078125" y="402" width="0" height="0"></rect><text class="er relationshipLabel" id="rel40" x="349.8330078125" y="402" style="text-anchor: middle; dominant-baseline: middle; font-size: 12px;"></text><rect class="er relationshipLabelBox" x="96.42713928222656" y="681.4609985351562" width="0" height="0"></rect><text class="er relationshipLabel" id="rel41" x="96.42713928222656" y="681.4609985351562" style="text-anchor: middle; dominant-baseline: middle; font-size: 12px;"></text><rect class="er relationshipLabelBox" x="443.3166198730469" y="688.4674072265625" width="0" height="0"></rect><text class="er relationshipLabel" id="rel42" x="443.3166198730469" y="688.4674072265625" style="text-anchor: middle; dominant-baseline: middle; font-size: 12px;"></text></svg>